<mxfile host="Electron" agent="Mozilla/5.0 (Macintosh; Intel Mac OS X 10_15_7) AppleWebKit/537.36 (KHTML, like Gecko) draw.io/28.2.5 Chrome/138.0.7204.251 Electron/37.6.1 Safari/537.36" version="28.2.5">
  <diagram name="Page-1" id="zlJZGHEHZJ7WvIRo8TRg">
    <mxGraphModel dx="1722" dy="1060" grid="1" gridSize="10" guides="1" tooltips="1" connect="1" arrows="1" fold="1" page="1" pageScale="1" pageWidth="827" pageHeight="1169" math="0" shadow="0">
      <root>
        <mxCell id="0" />
        <mxCell id="1" parent="0" />
        <mxCell id="6n5c7gBIqpkrS82uDkZF-33" value="" style="rounded=1;whiteSpace=wrap;html=1;" vertex="1" parent="1">
          <mxGeometry x="60" y="80" width="250" height="310" as="geometry" />
        </mxCell>
        <mxCell id="6n5c7gBIqpkrS82uDkZF-5" style="edgeStyle=orthogonalEdgeStyle;rounded=0;orthogonalLoop=1;jettySize=auto;html=1;exitX=0.5;exitY=1;exitDx=0;exitDy=0;entryX=0.5;entryY=0;entryDx=0;entryDy=0;" edge="1" parent="1" source="6n5c7gBIqpkrS82uDkZF-1" target="6n5c7gBIqpkrS82uDkZF-3">
          <mxGeometry relative="1" as="geometry" />
        </mxCell>
        <mxCell id="6n5c7gBIqpkrS82uDkZF-14" value="Plug and Play" style="edgeLabel;html=1;align=center;verticalAlign=middle;resizable=0;points=[];" vertex="1" connectable="0" parent="6n5c7gBIqpkrS82uDkZF-5">
          <mxGeometry x="-0.1333" relative="1" as="geometry">
            <mxPoint as="offset" />
          </mxGeometry>
        </mxCell>
        <mxCell id="6n5c7gBIqpkrS82uDkZF-1" value="" style="ellipse;whiteSpace=wrap;html=1;aspect=fixed;fillColor=#f5f5f5;fontColor=#333333;strokeColor=#666666;" vertex="1" parent="1">
          <mxGeometry x="95" y="90" width="50" height="50" as="geometry" />
        </mxCell>
        <mxCell id="6n5c7gBIqpkrS82uDkZF-3" value="" style="rhombus;whiteSpace=wrap;html=1;fillColor=#f5f5f5;fontColor=#333333;strokeColor=#666666;" vertex="1" parent="1">
          <mxGeometry x="90" y="200" width="60" height="60" as="geometry" />
        </mxCell>
        <mxCell id="6n5c7gBIqpkrS82uDkZF-8" value="&lt;font style=&quot;font-size: 11px;&quot;&gt;REGISTERED&lt;/font&gt;" style="html=1;dashed=0;whiteSpace=wrap;shape=mxgraph.dfd.start;fillColor=#d5e8d4;strokeColor=#82b366;" vertex="1" parent="1">
          <mxGeometry x="75.83" y="340" width="88.34" height="30" as="geometry" />
        </mxCell>
        <mxCell id="6n5c7gBIqpkrS82uDkZF-9" value="" style="rounded=1;whiteSpace=wrap;html=1;fillColor=#f5f5f5;fontColor=#333333;strokeColor=#666666;" vertex="1" parent="1">
          <mxGeometry x="200" y="210" width="100" height="40" as="geometry" />
        </mxCell>
        <mxCell id="6n5c7gBIqpkrS82uDkZF-10" value="Create Target" style="text;html=1;align=center;verticalAlign=middle;whiteSpace=wrap;rounded=0;horizontal=1;fontFamily=Times New Roman;fontSize=11;" vertex="1" parent="1">
          <mxGeometry x="215" y="215" width="70" height="30" as="geometry" />
        </mxCell>
        <mxCell id="6n5c7gBIqpkrS82uDkZF-11" value="Target Exists" style="text;html=1;align=center;verticalAlign=middle;whiteSpace=wrap;rounded=0;horizontal=1;fontFamily=Times New Roman;fontSize=11;" vertex="1" parent="1">
          <mxGeometry x="95" y="215" width="50" height="30" as="geometry" />
        </mxCell>
        <mxCell id="6n5c7gBIqpkrS82uDkZF-12" style="edgeStyle=orthogonalEdgeStyle;rounded=0;orthogonalLoop=1;jettySize=auto;html=1;exitX=1;exitY=0.5;exitDx=0;exitDy=0;" edge="1" parent="1" source="6n5c7gBIqpkrS82uDkZF-3">
          <mxGeometry relative="1" as="geometry">
            <mxPoint x="200" y="230" as="targetPoint" />
          </mxGeometry>
        </mxCell>
        <mxCell id="6n5c7gBIqpkrS82uDkZF-13" value="No" style="edgeLabel;html=1;align=center;verticalAlign=middle;resizable=0;points=[];" vertex="1" connectable="0" parent="6n5c7gBIqpkrS82uDkZF-12">
          <mxGeometry x="-0.0821" relative="1" as="geometry">
            <mxPoint as="offset" />
          </mxGeometry>
        </mxCell>
        <mxCell id="6n5c7gBIqpkrS82uDkZF-15" style="edgeStyle=orthogonalEdgeStyle;rounded=0;orthogonalLoop=1;jettySize=auto;html=1;exitX=0.5;exitY=1;exitDx=0;exitDy=0;entryX=0.5;entryY=0.5;entryDx=0;entryDy=-15;entryPerimeter=0;" edge="1" parent="1" source="6n5c7gBIqpkrS82uDkZF-3" target="6n5c7gBIqpkrS82uDkZF-8">
          <mxGeometry relative="1" as="geometry">
            <mxPoint x="120" y="310" as="targetPoint" />
          </mxGeometry>
        </mxCell>
        <mxCell id="6n5c7gBIqpkrS82uDkZF-16" value="Yes" style="edgeLabel;html=1;align=center;verticalAlign=middle;resizable=0;points=[];" vertex="1" connectable="0" parent="6n5c7gBIqpkrS82uDkZF-15">
          <mxGeometry x="-0.1333" relative="1" as="geometry">
            <mxPoint as="offset" />
          </mxGeometry>
        </mxCell>
        <mxCell id="6n5c7gBIqpkrS82uDkZF-17" style="edgeStyle=orthogonalEdgeStyle;rounded=1;orthogonalLoop=1;jettySize=auto;html=1;exitX=0.5;exitY=1;exitDx=0;exitDy=0;entryX=1;entryY=0.5;entryDx=0;entryDy=0;entryPerimeter=0;flowAnimation=0;shadow=0;jumpStyle=none;curved=0;" edge="1" parent="1" source="6n5c7gBIqpkrS82uDkZF-9" target="6n5c7gBIqpkrS82uDkZF-8">
          <mxGeometry relative="1" as="geometry">
            <Array as="points">
              <mxPoint x="250" y="355" />
            </Array>
          </mxGeometry>
        </mxCell>
        <mxCell id="6n5c7gBIqpkrS82uDkZF-75" value="" style="group" vertex="1" connectable="0" parent="1">
          <mxGeometry x="440" y="410" width="140" height="310" as="geometry" />
        </mxCell>
        <mxCell id="6n5c7gBIqpkrS82uDkZF-67" value="" style="rounded=1;whiteSpace=wrap;html=1;" vertex="1" parent="6n5c7gBIqpkrS82uDkZF-75">
          <mxGeometry width="140" height="310" as="geometry" />
        </mxCell>
        <mxCell id="6n5c7gBIqpkrS82uDkZF-68" style="edgeStyle=orthogonalEdgeStyle;rounded=0;orthogonalLoop=1;jettySize=auto;html=1;exitX=0.5;exitY=1;exitDx=0;exitDy=0;entryX=0.5;entryY=0;entryDx=0;entryDy=0;" edge="1" parent="6n5c7gBIqpkrS82uDkZF-75" source="6n5c7gBIqpkrS82uDkZF-70" target="6n5c7gBIqpkrS82uDkZF-72">
          <mxGeometry relative="1" as="geometry">
            <mxPoint x="70.00000000000023" y="120" as="targetPoint" />
          </mxGeometry>
        </mxCell>
        <mxCell id="6n5c7gBIqpkrS82uDkZF-69" value="Installation Error" style="edgeLabel;html=1;align=center;verticalAlign=middle;resizable=0;points=[];" vertex="1" connectable="0" parent="6n5c7gBIqpkrS82uDkZF-68">
          <mxGeometry x="-0.1333" relative="1" as="geometry">
            <mxPoint as="offset" />
          </mxGeometry>
        </mxCell>
        <mxCell id="6n5c7gBIqpkrS82uDkZF-70" value="" style="ellipse;whiteSpace=wrap;html=1;aspect=fixed;fillColor=#f5f5f5;fontColor=#333333;strokeColor=#666666;" vertex="1" parent="6n5c7gBIqpkrS82uDkZF-75">
          <mxGeometry x="45" y="10" width="50" height="50" as="geometry" />
        </mxCell>
        <mxCell id="6n5c7gBIqpkrS82uDkZF-71" value="&lt;font style=&quot;font-size: 11px;&quot;&gt;ERROR&lt;/font&gt;" style="html=1;dashed=0;whiteSpace=wrap;shape=mxgraph.dfd.start;fillColor=#f8cecc;strokeColor=#b85450;" vertex="1" parent="6n5c7gBIqpkrS82uDkZF-75">
          <mxGeometry x="31.670000000000073" y="260" width="76.67" height="30" as="geometry" />
        </mxCell>
        <mxCell id="6n5c7gBIqpkrS82uDkZF-72" value="" style="rounded=1;whiteSpace=wrap;html=1;fillColor=#f5f5f5;fontColor=#333333;strokeColor=#666666;" vertex="1" parent="6n5c7gBIqpkrS82uDkZF-75">
          <mxGeometry x="20" y="135" width="100" height="40" as="geometry" />
        </mxCell>
        <mxCell id="6n5c7gBIqpkrS82uDkZF-73" value="Update Target" style="text;html=1;align=center;verticalAlign=middle;whiteSpace=wrap;rounded=0;horizontal=1;fontFamily=Times New Roman;fontSize=11;" vertex="1" parent="6n5c7gBIqpkrS82uDkZF-75">
          <mxGeometry x="35" y="140" width="70" height="30" as="geometry" />
        </mxCell>
        <mxCell id="6n5c7gBIqpkrS82uDkZF-74" style="edgeStyle=orthogonalEdgeStyle;rounded=0;orthogonalLoop=1;jettySize=auto;html=1;exitX=0.5;exitY=1;exitDx=0;exitDy=0;entryX=0.5;entryY=0.5;entryDx=0;entryDy=-15;entryPerimeter=0;" edge="1" parent="6n5c7gBIqpkrS82uDkZF-75" source="6n5c7gBIqpkrS82uDkZF-72" target="6n5c7gBIqpkrS82uDkZF-71">
          <mxGeometry relative="1" as="geometry" />
        </mxCell>
        <mxCell id="6n5c7gBIqpkrS82uDkZF-76" value="" style="group" vertex="1" connectable="0" parent="1">
          <mxGeometry x="330" y="80" width="250" height="310" as="geometry" />
        </mxCell>
        <mxCell id="6n5c7gBIqpkrS82uDkZF-43" value="" style="rounded=1;whiteSpace=wrap;html=1;" vertex="1" parent="6n5c7gBIqpkrS82uDkZF-76">
          <mxGeometry width="250" height="310" as="geometry" />
        </mxCell>
        <mxCell id="6n5c7gBIqpkrS82uDkZF-59" style="edgeStyle=orthogonalEdgeStyle;rounded=0;orthogonalLoop=1;jettySize=auto;html=1;exitX=0.5;exitY=1;exitDx=0;exitDy=0;entryX=0.5;entryY=0;entryDx=0;entryDy=0;" edge="1" parent="6n5c7gBIqpkrS82uDkZF-76" source="6n5c7gBIqpkrS82uDkZF-46" target="6n5c7gBIqpkrS82uDkZF-49">
          <mxGeometry relative="1" as="geometry" />
        </mxCell>
        <mxCell id="6n5c7gBIqpkrS82uDkZF-60" value="Installation Successful" style="edgeLabel;html=1;align=center;verticalAlign=middle;resizable=0;points=[];" vertex="1" connectable="0" parent="6n5c7gBIqpkrS82uDkZF-59">
          <mxGeometry x="-0.2917" y="-1" relative="1" as="geometry">
            <mxPoint x="1" y="2" as="offset" />
          </mxGeometry>
        </mxCell>
        <mxCell id="6n5c7gBIqpkrS82uDkZF-46" value="" style="ellipse;whiteSpace=wrap;html=1;aspect=fixed;fillColor=#f5f5f5;fontColor=#333333;strokeColor=#666666;" vertex="1" parent="6n5c7gBIqpkrS82uDkZF-76">
          <mxGeometry x="100" y="10" width="50" height="50" as="geometry" />
        </mxCell>
        <mxCell id="6n5c7gBIqpkrS82uDkZF-48" value="&lt;font style=&quot;font-size: 11px;&quot;&gt;PENDING&lt;/font&gt;" style="html=1;dashed=0;whiteSpace=wrap;shape=mxgraph.dfd.start;fillColor=#fff2cc;strokeColor=#d6b656;" vertex="1" parent="6n5c7gBIqpkrS82uDkZF-76">
          <mxGeometry x="18.33" y="260" width="76.67" height="30" as="geometry" />
        </mxCell>
        <mxCell id="6n5c7gBIqpkrS82uDkZF-63" style="edgeStyle=orthogonalEdgeStyle;rounded=0;orthogonalLoop=1;jettySize=auto;html=1;exitX=0.5;exitY=1;exitDx=0;exitDy=0;entryX=0.5;entryY=0;entryDx=0;entryDy=0;" edge="1" parent="6n5c7gBIqpkrS82uDkZF-76" source="6n5c7gBIqpkrS82uDkZF-49" target="6n5c7gBIqpkrS82uDkZF-57">
          <mxGeometry relative="1" as="geometry" />
        </mxCell>
        <mxCell id="6n5c7gBIqpkrS82uDkZF-49" value="" style="rounded=1;whiteSpace=wrap;html=1;fillColor=#f5f5f5;fontColor=#333333;strokeColor=#666666;" vertex="1" parent="6n5c7gBIqpkrS82uDkZF-76">
          <mxGeometry x="75" y="100" width="100" height="40" as="geometry" />
        </mxCell>
        <mxCell id="6n5c7gBIqpkrS82uDkZF-50" value="Update Target" style="text;html=1;align=center;verticalAlign=middle;whiteSpace=wrap;rounded=0;horizontal=1;fontFamily=Times New Roman;fontSize=11;" vertex="1" parent="6n5c7gBIqpkrS82uDkZF-76">
          <mxGeometry x="90" y="105" width="70" height="30" as="geometry" />
        </mxCell>
        <mxCell id="6n5c7gBIqpkrS82uDkZF-57" value="==" style="rhombus;whiteSpace=wrap;html=1;fillColor=#f5f5f5;fontColor=#333333;strokeColor=#666666;" vertex="1" parent="6n5c7gBIqpkrS82uDkZF-76">
          <mxGeometry x="95" y="160" width="60" height="60" as="geometry" />
        </mxCell>
        <mxCell id="6n5c7gBIqpkrS82uDkZF-58" value="Installed Distribution Set&amp;nbsp;&lt;div&gt;&lt;b&gt;equal to&lt;/b&gt;&lt;br&gt;&lt;div&gt;&amp;nbsp;Assigned Distribution Set&lt;/div&gt;&lt;/div&gt;" style="text;html=1;align=center;verticalAlign=middle;whiteSpace=wrap;rounded=0;horizontal=1;fontFamily=Times New Roman;fontSize=10;" vertex="1" parent="6n5c7gBIqpkrS82uDkZF-76">
          <mxGeometry x="63.75" y="222" width="122.5" height="30" as="geometry" />
        </mxCell>
        <mxCell id="6n5c7gBIqpkrS82uDkZF-64" style="edgeStyle=orthogonalEdgeStyle;rounded=0;orthogonalLoop=1;jettySize=auto;html=1;exitX=0;exitY=0.5;exitDx=0;exitDy=0;entryX=0.5;entryY=0.5;entryDx=0;entryDy=-15;entryPerimeter=0;" edge="1" parent="6n5c7gBIqpkrS82uDkZF-76" source="6n5c7gBIqpkrS82uDkZF-57" target="6n5c7gBIqpkrS82uDkZF-48">
          <mxGeometry relative="1" as="geometry" />
        </mxCell>
        <mxCell id="6n5c7gBIqpkrS82uDkZF-65" value="&lt;font style=&quot;font-size: 11px;&quot;&gt;IN_SYNC&lt;/font&gt;" style="html=1;dashed=0;whiteSpace=wrap;shape=mxgraph.dfd.start;fillColor=#d5e8d4;strokeColor=#82b366;" vertex="1" parent="6n5c7gBIqpkrS82uDkZF-76">
          <mxGeometry x="155" y="260" width="76.67" height="30" as="geometry" />
        </mxCell>
        <mxCell id="6n5c7gBIqpkrS82uDkZF-66" style="edgeStyle=orthogonalEdgeStyle;rounded=0;orthogonalLoop=1;jettySize=auto;html=1;exitX=1;exitY=0.5;exitDx=0;exitDy=0;entryX=0.5;entryY=0.5;entryDx=0;entryDy=-14.999999999999998;entryPerimeter=0;" edge="1" parent="6n5c7gBIqpkrS82uDkZF-76" source="6n5c7gBIqpkrS82uDkZF-57" target="6n5c7gBIqpkrS82uDkZF-65">
          <mxGeometry relative="1" as="geometry" />
        </mxCell>
        <mxCell id="6n5c7gBIqpkrS82uDkZF-77" value="" style="group" vertex="1" connectable="0" parent="1">
          <mxGeometry x="250" y="410" width="140" height="310" as="geometry" />
        </mxCell>
        <mxCell id="6n5c7gBIqpkrS82uDkZF-34" value="" style="rounded=1;whiteSpace=wrap;html=1;" vertex="1" parent="6n5c7gBIqpkrS82uDkZF-77">
          <mxGeometry width="140" height="310" as="geometry" />
        </mxCell>
        <mxCell id="6n5c7gBIqpkrS82uDkZF-18" style="edgeStyle=orthogonalEdgeStyle;rounded=0;orthogonalLoop=1;jettySize=auto;html=1;exitX=0.5;exitY=1;exitDx=0;exitDy=0;entryX=0.5;entryY=0;entryDx=0;entryDy=0;" edge="1" parent="6n5c7gBIqpkrS82uDkZF-77" source="6n5c7gBIqpkrS82uDkZF-20" target="6n5c7gBIqpkrS82uDkZF-23">
          <mxGeometry relative="1" as="geometry">
            <mxPoint x="70.00000000000017" y="120" as="targetPoint" />
          </mxGeometry>
        </mxCell>
        <mxCell id="6n5c7gBIqpkrS82uDkZF-19" value="Precomissioning" style="edgeLabel;html=1;align=center;verticalAlign=middle;resizable=0;points=[];" vertex="1" connectable="0" parent="6n5c7gBIqpkrS82uDkZF-18">
          <mxGeometry x="-0.1333" relative="1" as="geometry">
            <mxPoint as="offset" />
          </mxGeometry>
        </mxCell>
        <mxCell id="6n5c7gBIqpkrS82uDkZF-20" value="" style="ellipse;whiteSpace=wrap;html=1;aspect=fixed;fillColor=#f5f5f5;fontColor=#333333;strokeColor=#666666;" vertex="1" parent="6n5c7gBIqpkrS82uDkZF-77">
          <mxGeometry x="45" y="10" width="50" height="50" as="geometry" />
        </mxCell>
        <mxCell id="6n5c7gBIqpkrS82uDkZF-22" value="&lt;font style=&quot;font-size: 11px;&quot;&gt;UNKNOWN&lt;/font&gt;" style="html=1;dashed=0;whiteSpace=wrap;shape=mxgraph.dfd.start;fillColor=#dae8fc;strokeColor=#6c8ebf;" vertex="1" parent="6n5c7gBIqpkrS82uDkZF-77">
          <mxGeometry x="31.660000000000014" y="260" width="76.67" height="30" as="geometry" />
        </mxCell>
        <mxCell id="6n5c7gBIqpkrS82uDkZF-23" value="" style="rounded=1;whiteSpace=wrap;html=1;fillColor=#f5f5f5;fontColor=#333333;strokeColor=#666666;" vertex="1" parent="6n5c7gBIqpkrS82uDkZF-77">
          <mxGeometry x="20" y="135" width="100" height="40" as="geometry" />
        </mxCell>
        <mxCell id="6n5c7gBIqpkrS82uDkZF-24" value="Create Target" style="text;html=1;align=center;verticalAlign=middle;whiteSpace=wrap;rounded=0;horizontal=1;fontFamily=Times New Roman;fontSize=11;" vertex="1" parent="6n5c7gBIqpkrS82uDkZF-77">
          <mxGeometry x="35" y="140" width="70" height="30" as="geometry" />
        </mxCell>
        <mxCell id="6n5c7gBIqpkrS82uDkZF-32" style="edgeStyle=orthogonalEdgeStyle;rounded=0;orthogonalLoop=1;jettySize=auto;html=1;exitX=0.5;exitY=1;exitDx=0;exitDy=0;entryX=0.5;entryY=0.5;entryDx=0;entryDy=-15;entryPerimeter=0;" edge="1" parent="6n5c7gBIqpkrS82uDkZF-77" source="6n5c7gBIqpkrS82uDkZF-23" target="6n5c7gBIqpkrS82uDkZF-22">
          <mxGeometry relative="1" as="geometry" />
        </mxCell>
        <mxCell id="6n5c7gBIqpkrS82uDkZF-78" value="" style="group" vertex="1" connectable="0" parent="1">
          <mxGeometry x="60" y="410" width="140" height="310" as="geometry" />
        </mxCell>
        <mxCell id="6n5c7gBIqpkrS82uDkZF-35" value="" style="rounded=1;whiteSpace=wrap;html=1;" vertex="1" parent="6n5c7gBIqpkrS82uDkZF-78">
          <mxGeometry width="140" height="310" as="geometry" />
        </mxCell>
        <mxCell id="6n5c7gBIqpkrS82uDkZF-36" style="edgeStyle=orthogonalEdgeStyle;rounded=0;orthogonalLoop=1;jettySize=auto;html=1;exitX=0.5;exitY=1;exitDx=0;exitDy=0;entryX=0.5;entryY=0;entryDx=0;entryDy=0;" edge="1" parent="6n5c7gBIqpkrS82uDkZF-78" source="6n5c7gBIqpkrS82uDkZF-38" target="6n5c7gBIqpkrS82uDkZF-40">
          <mxGeometry relative="1" as="geometry">
            <mxPoint x="70.00000000000023" y="128.2758620689655" as="targetPoint" />
          </mxGeometry>
        </mxCell>
        <mxCell id="6n5c7gBIqpkrS82uDkZF-37" value="Assign Distribution Set" style="edgeLabel;html=1;align=center;verticalAlign=middle;resizable=0;points=[];" vertex="1" connectable="0" parent="6n5c7gBIqpkrS82uDkZF-36">
          <mxGeometry x="-0.1333" relative="1" as="geometry">
            <mxPoint as="offset" />
          </mxGeometry>
        </mxCell>
        <mxCell id="6n5c7gBIqpkrS82uDkZF-38" value="" style="ellipse;whiteSpace=wrap;html=1;aspect=fixed;fillColor=#f5f5f5;fontColor=#333333;strokeColor=#666666;" vertex="1" parent="6n5c7gBIqpkrS82uDkZF-78">
          <mxGeometry x="45" y="9.999310344827583" width="50" height="50" as="geometry" />
        </mxCell>
        <mxCell id="6n5c7gBIqpkrS82uDkZF-39" value="&lt;font style=&quot;font-size: 11px;&quot;&gt;PENDING&lt;/font&gt;" style="html=1;dashed=0;whiteSpace=wrap;shape=mxgraph.dfd.start;fillColor=#fff2cc;strokeColor=#d6b656;" vertex="1" parent="6n5c7gBIqpkrS82uDkZF-78">
          <mxGeometry x="31.670000000000073" y="260.0020689655172" width="76.67" height="32.068965517241374" as="geometry" />
        </mxCell>
        <mxCell id="6n5c7gBIqpkrS82uDkZF-40" value="" style="rounded=1;whiteSpace=wrap;html=1;fillColor=#f5f5f5;fontColor=#333333;strokeColor=#666666;" vertex="1" parent="6n5c7gBIqpkrS82uDkZF-78">
          <mxGeometry x="20" y="138.9655172413793" width="100" height="42.75862068965517" as="geometry" />
        </mxCell>
        <mxCell id="6n5c7gBIqpkrS82uDkZF-41" value="Update Target" style="text;html=1;align=center;verticalAlign=middle;whiteSpace=wrap;rounded=0;horizontal=1;fontFamily=Times New Roman;fontSize=11;" vertex="1" parent="6n5c7gBIqpkrS82uDkZF-78">
          <mxGeometry x="35" y="144.3103448275862" width="70" height="32.068965517241374" as="geometry" />
        </mxCell>
        <mxCell id="6n5c7gBIqpkrS82uDkZF-42" style="edgeStyle=orthogonalEdgeStyle;rounded=0;orthogonalLoop=1;jettySize=auto;html=1;exitX=0.5;exitY=1;exitDx=0;exitDy=0;entryX=0.5;entryY=0.5;entryDx=0;entryDy=-15;entryPerimeter=0;" edge="1" parent="6n5c7gBIqpkrS82uDkZF-78" source="6n5c7gBIqpkrS82uDkZF-40" target="6n5c7gBIqpkrS82uDkZF-39">
          <mxGeometry relative="1" as="geometry" />
        </mxCell>
      </root>
    </mxGraphModel>
  </diagram>
</mxfile>
